<?xml version="1.0" encoding="iso-8859-1"?>
<!-- Generator: Adobe Illustrator 19.0.0, SVG Export Plug-In . SVG Version: 6.00 Build 0)  -->
<svg version="1.1" id="Capa_1" xmlns="http://www.w3.org/2000/svg" xmlns:xlink="http://www.w3.org/1999/xlink" x="0px" y="0px"
	 viewBox="0 0 512 512" style="enable-background:new 0 0 512 512;" xml:space="preserve">
<path style="fill:#F8C09C;" d="M383.998,175.244l0.001-0.001V34.133C383.999,15.282,368.717,0,349.866,0
	c-18.851,0-34.133,15.282-34.133,34.133v116.274l-136.534,3.195V85.333c0-18.851-15.282-34.133-34.133-34.133
	s-34.133,15.282-34.133,34.133v230.401c0,37.703,30.563,68.267,68.267,68.267v53.309h153.598V384
	c37.703,0,68.266-30.563,68.266-68.266V204.8C401.066,192.168,394.198,181.147,383.998,175.244z"/>
<g>
	<path style="fill:#F7AB81;" d="M307.199,376.275c-4.268,0-7.726,3.458-7.726,7.726c0,4.268,3.458,7.726,7.726,7.726h25.6V384
		c11.38,0,22.1-2.8,31.536-7.725H307.199z"/>
	<path style="fill:#F7AB81;" d="M179.201,384.001v7.726H204.8c4.268,0,7.726-3.458,7.726-7.726c0-4.268-3.458-7.726-7.726-7.726
		h-57.136C157.1,381.201,167.821,384.001,179.201,384.001z"/>
	<path style="fill:#F7AB81;" d="M383.998,175.244l0.001-0.001V34.133C383.999,15.282,368.717,0,349.866,0
		c-3.591,0-7.051,0.557-10.302,1.585c13.816,4.369,23.831,17.286,23.831,32.547v141.11l-0.001,0.001
		c10.2,5.902,17.068,16.924,17.068,29.556v110.934c0,37.703-30.563,68.266-68.266,68.266v53.309H332.8V384
		c37.703,0,68.266-30.563,68.266-68.266V204.8C401.066,192.168,394.198,181.147,383.998,175.244z"/>
</g>
<path style="fill:#F8C09C;" d="M179.201,204.803c0,18.851,15.282,34.133,34.133,34.133s34.133-15.282,34.133-34.133v-51.201
	c0-18.851-15.282-34.133-34.133-34.133s-34.133,15.282-34.133,34.133V204.803z"/>
<path style="fill:#F7AB81;" d="M213.333,119.469c-3.591,0-7.051,0.557-10.302,1.585c13.815,4.369,23.831,17.286,23.831,32.547
	v51.201c0,15.26-10.015,28.178-23.831,32.547c3.251,1.028,6.711,1.586,10.302,1.586c18.851,0,34.133-15.282,34.133-34.133v-51.201
	C247.466,134.751,232.184,119.469,213.333,119.469z"/>
<path style="fill:#F8C09C;" d="M281.6,238.936c-18.851,0-34.133-15.282-34.133-34.133l-0.001-68.268
	c0-18.851,15.282-34.133,34.133-34.133c18.851,0,34.133,15.282,34.133,34.133v34.134L281.6,238.936z"/>
<path style="fill:#F7AB81;" d="M281.6,102.402c-3.588,0-7.044,0.556-10.294,1.583c13.82,4.366,23.839,17.286,23.839,32.55v34.134
	h20.586v-34.134C315.732,117.684,300.45,102.402,281.6,102.402z"/>
<path style="fill:#D0E2ED;" d="M366.932,443.73l40.143,20.067c4.556,2.278,4.556,8.779,0.001,11.057l-40.142,20.075H145.068
	l-40.143-20.067c-4.556-2.278-4.556-8.779-0.001-11.057l40.142-20.075H366.932z"/>
<path style="fill:#AABFCF;" d="M104.143,474.399c0.244,0.169,0.504,0.324,0.782,0.463l40.143,20.067h221.866l40.142-20.075
	c0.273-0.136,0.527-0.289,0.767-0.454H104.143z"/>
<path style="fill:#394D5C;" d="M360.751,512H151.249c-3.414,0-6.181-2.767-6.181-6.181V432.85c0-3.414,2.767-6.181,6.181-6.181
	h209.502c3.414,0,6.181,2.767,6.181,6.181v72.969C366.932,509.233,364.165,512,360.751,512z"/>
<path style="fill:#133441;" d="M360.751,426.669h-20.604c3.414,0,6.181,2.767,6.181,6.181v72.969c0,3.414-2.767,6.181-6.181,6.181
	h20.604c3.414,0,6.181-2.767,6.181-6.181V432.85C366.932,429.436,364.165,426.669,360.751,426.669z"/>
<g>
	<circle style="fill:#D0E2ED;" cx="204.8" cy="469.33" r="25.599"/>
	<circle style="fill:#D0E2ED;" cx="307.2" cy="469.33" r="25.599"/>
</g>
<g>
	<path style="fill:#AABFCF;" d="M179.704,474.399c2.352,11.71,12.693,20.531,25.095,20.531c12.402,0,22.743-8.821,25.095-20.531
		H179.704z"/>
	<path style="fill:#AABFCF;" d="M282.105,474.399c2.352,11.71,12.693,20.531,25.095,20.531c12.402,0,22.743-8.821,25.095-20.531
		H282.105z"/>
</g>
<g>
	<path style="fill:#F7AB81;" d="M179.201,204.803L179.2,85.333c0-18.851-15.282-34.133-34.133-34.133
		c-3.591,0-7.051,0.558-10.302,1.585c13.816,4.369,23.831,17.286,23.831,32.547l0.02,119.469c0,18.851,15.738,34.133,34.589,34.133
		c3.504,0,6.883-0.53,10.065-1.51C189.331,233.13,179.201,220.151,179.201,204.803z"/>
	<path style="fill:#F7AB81;" d="M247.467,366.127c-4.268,0-7.726-3.458-7.726-7.726c0-48.71,37.623-88.8,85.333-92.741v-26.726
		c0-4.268,3.458-7.726,7.726-7.726c4.268,0,7.726,3.458,7.726,7.726v34.135c0,4.268-3.458,7.726-7.726,7.726
		c-42.793,0-77.607,34.814-77.607,77.607C255.193,362.668,251.734,366.127,247.467,366.127z"/>
	<path style="fill:#F7AB81;" d="M281.6,246.66c-23.081,0-41.859-18.777-41.859-41.859s18.778-41.859,41.859-41.859l85.334-0.001
		c4.267,0,7.726,3.458,7.726,7.726c0,4.267-3.458,7.726-7.726,7.726l-85.334,0.001c-14.561,0-26.407,11.846-26.407,26.407
		c0,14.561,11.846,26.407,26.407,26.407l59.733-0.001c4.267,0,7.726,3.458,7.726,7.726c0,4.267-3.458,7.726-7.726,7.726
		L281.6,246.66z"/>
</g>
<g>
</g>
<g>
</g>
<g>
</g>
<g>
</g>
<g>
</g>
<g>
</g>
<g>
</g>
<g>
</g>
<g>
</g>
<g>
</g>
<g>
</g>
<g>
</g>
<g>
</g>
<g>
</g>
<g>
</g>
</svg>
