<svg id="Layer_1" height="512" viewBox="0 0 512 512" width="512" xmlns="http://www.w3.org/2000/svg" data-name="Layer 1"><path d="m155.89 160.64-14.54-16.24v-61.81h-30v61.81l14.54 16.24-14.54 12.42v70.71l14.54 12.42-14.54 17.2v19.11l14.54 12.42-14.54 18.12v106.37h30v-106.37l14.54-18.12-14.54-12.42v-19.11l14.54-17.2-14.54-12.42v-70.71z" fill="#d4e1f4"/><path d="m446.56 86.22a30.19 30.19 0 0 0 .833-60.373 19.255 19.255 0 0 0 -18.918-15.847h-4.619a19.224 19.224 0 0 0 -15.856 8.374h-304a19.224 19.224 0 0 0 -15.856-8.374h-4.619a19.255 19.255 0 0 0 -18.918 15.847 30.19 30.19 0 0 0 .833 60.373 19.252 19.252 0 0 0 18.085 12.746h4.619a19.221 19.221 0 0 0 15.856-8.374h1.347v53.808a6 6 0 0 0 1.529 4l10.442 11.67-9.869 8.433a6 6 0 0 0 -2.1 4.561v70.707a6 6 0 0 0 2.1 4.562l10 8.544-10.683 12.641a6 6 0 0 0 -1.418 3.873v19.109a6 6 0 0 0 2.1 4.561l10.113 8.643-10.9 13.584a6 6 0 0 0 -1.319 3.754v98.364h-1.342a19.225 19.225 0 0 0 -15.859-8.373h-4.616a19.252 19.252 0 0 0 -18.085 12.747 30.19 30.19 0 0 0 -.833 60.373 19.255 19.255 0 0 0 18.918 15.847h4.619a19.224 19.224 0 0 0 15.856-8.374h304a19.224 19.224 0 0 0 15.856 8.374h4.619a19.255 19.255 0 0 0 18.918-15.847 30.19 30.19 0 0 0 -.833-60.373 19.252 19.252 0 0 0 -18.085-12.746h-4.619a19.211 19.211 0 0 0 -15.71 8.174l1.445-126.341a6 6 0 0 0 -.15-1.4l-3.573-15.7 10.965-20.831a6 6 0 0 0 -.041-5.666l-16.96-31.127 7.334-10.317a6 6 0 0 0 1.108-3.586l-2.119-115.65h1.845a19.27 19.27 0 0 0 11.939 7.97v67.571a17.488 17.488 0 1 0 12 0v-67.493a19.275 19.275 0 0 0 14.621-12.418zm18.487-30.2a18.355 18.355 0 0 1 -17.337 18.142v-36.277a18.355 18.355 0 0 1 17.337 18.138zm-418.094 0a18.354 18.354 0 0 1 17.337-18.135v36.277a18.356 18.356 0 0 1 -17.337-18.139zm48.426 23.711a7.243 7.243 0 0 1 -7.235 7.235h-4.619a7.243 7.243 0 0 1 -7.235-7.235v-50.5a7.244 7.244 0 0 1 7.235-7.231h4.619a7.244 7.244 0 0 1 7.235 7.235zm309.242 353.676v48.219h-5.851v-1.451a6 6 0 1 0 -12 0v1.451h-279.391v-29.392h102.474a6 6 0 0 0 0-12h-102.474v-6.827zm-357.668 22.57a18.356 18.356 0 0 1 17.337-18.139v36.277a18.355 18.355 0 0 1 -17.337-18.138zm48.426 26.788a7.244 7.244 0 0 1 -7.235 7.235h-4.619a7.244 7.244 0 0 1 -7.235-7.235v-50.5a7.243 7.243 0 0 1 7.235-7.235h4.619a7.243 7.243 0 0 1 7.235 7.235zm369.668-26.788a18.355 18.355 0 0 1 -17.337 18.138v-36.277a18.356 18.356 0 0 1 17.337 18.139zm-48.426-23.708a7.243 7.243 0 0 1 7.235-7.235h4.619a7.243 7.243 0 0 1 7.235 7.235v50.5a7.244 7.244 0 0 1 -7.235 7.231h-4.619a7.244 7.244 0 0 1 -7.235-7.235zm-20.381-227.783-8.361 11.762a6 6 0 0 0 -.378 6.347l17.216 31.6-10.5 19.951a6 6 0 0 0 -.541 4.127l3.908 17.169-1.441 125.968h-278.792v-96.258l13.216-16.476a6 6 0 0 0 -.783-8.316l-12.433-10.625v-14.148l13.118-15.522a6 6 0 0 0 -.685-8.434l-12.433-10.625v-65.176l12.433-10.625a6 6 0 0 0 .573-8.563l-13.006-14.535v-51.515h21.157a6 6 0 0 0 0-12h-31.129v-48.218h5.851v1.451a6 6 0 1 0 12 0v-1.451h279.391v29.392h-102.474a6 6 0 1 0 0 12h102.474v6.826h-226.113a6 6 0 0 0 0 12h215.645zm20.381-124.755v-50.5a7.244 7.244 0 0 1 7.235-7.231h4.619a7.244 7.244 0 0 1 7.235 7.235v50.5a7.243 7.243 0 0 1 -7.235 7.235h-4.619a7.243 7.243 0 0 1 -7.235-7.239zm9.314 108.024a5.35 5.35 0 1 1 5.487-5.348 5.426 5.426 0 0 1 -5.487 5.348z" fill="#0635c9"/><path d="m267.089 71.766h16.381a6 6 0 0 0 0-12h-16.381a6 6 0 1 0 0 12z" fill="#0635c9"/><path d="m228.53 452.234h16.381a6 6 0 0 0 0-12h-16.381a6 6 0 0 0 0 12z" fill="#0635c9"/><g fill="#1ae5be"><path d="m279.574 153.675h.117a6 6 0 0 0 .114-12l-5.469-.1c-8.557-8.74-17.646-12.922-27.107-12.407-15.483.83-25.4 14.264-25.81 14.835a6 6 0 0 0 .842 7.981 43.007 43.007 0 0 0 6.874 4.981v23.055a6 6 0 0 0 12 0v-17.472a20.513 20.513 0 0 0 4.267 11.1 15.97 15.97 0 0 0 11.981 5.607c1.186.05 2.776.07 4.563.07 7.12 0 17.391-.317 17.93-.333a6 6 0 1 0 -.376-11.992c-.161 0-16.137.5-21.618.268-1.991-.083-2.785-.733-3.255-1.289a7.051 7.051 0 0 1 -1.306-3.027c6.792-.608 13.9-3.328 20.694-9.379zm-31.6-2.723h-.009-.042a27.282 27.282 0 0 1 -4.909-1 35.478 35.478 0 0 1 -7.571-3.314c2.988-2.512 7.338-5.214 12.433-5.488 4.849-.259 9.869 1.761 14.9 6.024a21.669 21.669 0 0 1 -14.806 3.778z"/><path d="m287.257 123.334h-6.137c-8.789-8.769-18.755-13.379-29.657-13.71-20.76-.636-36.943 14.731-37.624 15.386a6 6 0 0 0 8.318 8.649c.13-.126 13.189-12.544 28.942-12.041 8.331.253 16.087 4.216 23.051 11.78a6 6 0 0 0 4.414 1.936h8.693a6 6 0 0 0 0-12z"/><path d="m227.232 366.181h-28.9v-18.273a6 6 0 0 0 -12 0v18.273h-22.9v-18.273a6 6 0 0 0 -12 0v24.273a6 6 0 0 0 6 6h69.8a6 6 0 1 0 0-12z"/><path d="m338.237 336.43c-15.491 0-28.093 12.387-28.093 27.614s12.6 27.614 28.093 27.614 28.095-12.387 28.095-27.614-12.603-27.614-28.095-27.614zm0 43.228a15.621 15.621 0 1 1 16.095-15.614 15.877 15.877 0 0 1 -16.095 15.614z"/><path d="m371.953 243.768-7.546 8.165-8.053-8.277a6 6 0 0 0 -8.187-.387l-10.667 9.066-7.823-8.546a6 6 0 0 0 -8.424-.422l-9.731 8.7-6.824-8.092a6 6 0 0 0 -9.174 7.736l10.806 12.813a6 6 0 0 0 8.585.6l9.914-8.861 7.726 8.439a6 6 0 0 0 8.312.52l10.8-9.178 8.552 8.79a6 6 0 0 0 8.707-.111l11.841-12.812a6 6 0 1 0 -8.813-8.145z"/><path d="m154.544 272.279a6 6 0 0 0 5.556 3.735h64.468a6 6 0 0 0 4.2-10.289l-32.239-31.535a6 6 0 0 0 -8.39 0l-32.239 31.535a6 6 0 0 0 -1.356 6.554zm37.79-25.406 17.521 17.141h-35.043z"/><path d="m263.682 230.919a6 6 0 0 0 -6 6v156.26a6 6 0 0 0 12 0v-156.26a6 6 0 0 0 -6-6z"/></g></svg>