<svg height="512" viewBox="0 0 128 128" width="512" xmlns="http://www.w3.org/2000/svg"><g id="Circle_Grid" data-name="Circle Grid"><circle cx="64" cy="64" fill="#69b0ee" r="64"/></g><g id="icon"><path d="m90.533 95.227 8.58 9.773h-63.721a9.084 9.084 0 0 1 -9.084-9.084v-72.916h64.225v77.747" fill="#eeefee"/><g fill="#dbd8dd"><path d="m90.533 66.65h17.159a0 0 0 0 1 0 0v32.683a5.667 5.667 0 0 1 -5.667 5.667h-5.825a5.667 5.667 0 0 1 -5.667-5.667v-32.683a0 0 0 0 1 0 0z"/><path d="m31.263 29.083h14.354v2.082h-14.354z"/><path d="m50.916 29.083h34.662v2.082h-34.662z"/><path d="m31.263 37.165h54.316v2.082h-54.316z"/><path d="m31.263 45.248h33.91v2.082h-33.91z"/><path d="m70.725 45.248h14.854v2.082h-14.854z"/><path d="m31.263 53.331h54.316v2.082h-54.316z"/><path d="m31.263 61.414h10.569v2.082h-10.569z"/><path d="m48.014 61.414h37.564v2.082h-37.564z"/><path d="m31.263 69.496h54.316v2.082h-54.316z"/><path d="m31.263 77.579h30.756v2.082h-30.756z"/><path d="m67.192 77.579h18.387v2.082h-18.387z"/><path d="m31.263 85.662h54.316v2.082h-54.316z"/><path d="m31.263 93.744h54.316v2.082h-54.316z"/></g></g></svg>